<svg id="Ebene_1" data-name="Ebene 1" xmlns="http://www.w3.org/2000/svg" viewBox="0 0 1200 679.4"><defs><style>.cls-1{fill:#1d1d1b;}</style></defs><title>MalZwei_Logo_black</title><path class="cls-1" d="M186.72,586.4,128,729.4h-5.31l-58.94-143v143H50V568.29H70.53l54.83,133.57L180,568.29h20.77V729.4h-14Z" transform="translate(-50 -50)"/><path class="cls-1" d="M365.7,689.78H280L263.77,729.4H248.31l65.94-161.11H331.4L397.34,729.4H381.88Zm-81.4-12.56h77.05l-38.64-95.41Z" transform="translate(-50 -50)"/><path class="cls-1" d="M445.17,568.29h13.76V716.84h78V729.4H445.17Z" transform="translate(-50 -50)"/><path class="cls-1" d="M669.81,717.32l96.85-136.47H669.81V568.29H784.3v11.83L687.2,716.84H786V729.4H669.81Z" transform="translate(-50 -50)"/><path class="cls-1" d="M926.81,591,888.4,729.4H872.94L826.81,568.29h15.46l38.89,141.78,39.61-141.78h12.32L972.7,710.07l38.89-141.78h15.46L981.16,729.4H965.7Z" transform="translate(-50 -50)"/><path class="cls-1" d="M1075.84,568.29H1178v12.56h-88.41v59.66h86.72v12.56h-86.72v63.77H1178V729.4H1075.84Z" transform="translate(-50 -50)"/><path class="cls-1" d="M1236.23,568.29H1250V729.4h-13.77Z" transform="translate(-50 -50)"/><path class="cls-1" d="M703.55,270.13a25.78,25.78,0,1,0-21.33-40.26h0l-27.87-13.13,37.71-53A25.83,25.83,0,1,0,678.85,148l-63.78,30.48a25.77,25.77,0,0,0-46.11,22l-61.18,29.24a25.78,25.78,0,1,0,0,29.2L569,288.2a25.77,25.77,0,0,0,46.11,22h0l63.78,30.48h0A25.74,25.74,0,1,0,692.11,325h0l-37.77-53.37,27.79-12.9A25.75,25.75,0,0,0,703.55,270.13Zm0-44.53a18.75,18.75,0,1,1-18.75,18.75A18.77,18.77,0,0,1,703.55,225.6Zm0-103.73a18.75,18.75,0,1,1-18.75,18.75A18.77,18.77,0,0,1,703.55,121.87Zm-24,28.07,0-.06Zm1.75,3.64-.06-.11Zm1,1.64a25.64,25.64,0,0,0,3.22,3.82h0L647,213.26l-28.78-13.55a25.77,25.77,0,0,0,1-7.22,25.41,25.41,0,0,0-.89-6.69h0Zm6.34,6.43-.08-.06ZM611.43,211a25.44,25.44,0,0,0,3.34-4l27.48,12.94L630,237.16Zm30.81,57.44-27.79,12.89a25.34,25.34,0,0,0-3.3-3.79h0L630,251Zm-26.47-63c0-.07.07-.14.11-.2S615.81,205.31,615.77,205.38ZM617,182l0-.07Zm-23.55-8.27a18.75,18.75,0,1,1-18.75,18.75A18.77,18.77,0,0,1,593.45,173.74Zm14.93,39.75-.07,0Zm-37.85-9.22,0-.06Zm2.09,3.38a25.77,25.77,0,0,0,32.26,7.94l20.17,28.5-20.51,28.85a25.78,25.78,0,0,0-31.92,8.11l-61.38-29.34a25.62,25.62,0,0,0,0-14.72h0Zm33.79,66.29-.19-.11ZM508.88,231.5l-.06-.11Zm1.72,3.59,0-.06Zm-24.06,28a18.75,18.75,0,1,1,18.75-18.75A18.77,18.77,0,0,1,486.54,263.1Zm22.34-5.9-.06.11Zm1.71-3.59,0,.06Zm59.95,30.82,0,.07ZM593.45,315a18.75,18.75,0,1,1,18.75-18.75A18.77,18.77,0,0,1,593.45,315ZM617,306.7l0,.06Zm-.51-22a.2.2,0,0,1,0,.08A.2.2,0,0,0,616.49,284.67Zm.83,1.81c0,.07,0,.13.07.19S617.34,286.55,617.32,286.48Zm62.17,52.34,0-.06Zm1.72-3.59.06-.11Zm41.09,12.85a18.75,18.75,0,1,1-18.75-18.75A18.77,18.77,0,0,1,722.3,348.08Zm-36.73-18.46h0a26.12,26.12,0,0,0-3.26,3.86l-64-30.57h0a25.72,25.72,0,0,0-.3-14.44L647,275.05Zm3.12-2.6-.08.06ZM649.64,265,634.89,244.1l14.73-20.72,29.19,13.75a25.57,25.57,0,0,0,0,14.3Zm31.59-33.49a2,2,0,0,0-.11.2A2,2,0,0,1,681.23,231.46Zm-.18,25.47.12.2Zm-.89-1.74,0,.06Z" transform="translate(-50 -50)"/><path d="M623.35,435.22c-106.21,0-192.61-86.4-192.61-192.61S517.14,50,623.35,50,816,136.41,816,242.61,729.56,435.22,623.35,435.22Zm0-377.89c-102.16,0-185.28,83.12-185.28,185.28s83.12,185.28,185.28,185.28,185.28-83.11,185.28-185.28S725.52,57.33,623.35,57.33Z" transform="translate(-50 -50)"/></svg>